{
  "accessors": [
    {
      "bufferView": 2,
      "componentType": 5126,
      "count": 119,
      "max": [
        15.282233238220215,
        1.0562260150909424,
        13.149435997009277
      ],
      "min": [
        5.268889904022217,
        -6.387904167175293,
        11.780984878540039
      ],
      "type": "VEC3"
    },
    {
      "bufferView": 2,
      "byteOffset": 1428,
      "componentType": 5126,
      "count": 119,
      "max": [
        0.9983931183815002,
        0.995901882648468,
        0.9977295398712158
      ],
      "min": [
        -0.9981674551963806,
        -0.08851397782564163,
        -0.9998407363891602
      ],
      "type": "VEC3"
    },
    {
      "bufferView": 3,
      "componentType": 5126,
      "count": 119,
      "max": [
        0.9981681108474731,
        0.6475693583488464,
        0.9977297782897949,
        1.0
      ],
      "min": [
        -0.9981673955917358,
        -0.12368488311767578,
        -0.9977296590805054,
        1.0
      ],
      "type": "VEC4"
    },
    {
      "bufferView": 1,
      "componentType": 5126,
      "count": 119,
      "max": [
        0.8258829712867737,
        0.9795809984207153
      ],
      "min": [
        0.233364999294281,
        0.42011401057243347
      ],
      "type": "VEC2"
    },
    {
      "bufferView": 0,
      "componentType": 5125,
      "count": 321,
      "type": "SCALAR"
    },
    {
      "bufferView": 2,
      "byteOffset": 2856,
      "componentType": 5126,
      "count": 56,
      "max": [
        13.036097526550293,
        -8.283945083618164,
        18.733060836791992
      ],
      "min": [
        9.786538124084473,
        -8.311588287353516,
        15.48363971710205
      ],
      "type": "VEC3"
    },
    {
      "bufferView": 2,
      "byteOffset": 3528,
      "componentType": 5126,
      "count": 56,
      "max": [
        0.3008090555667877,
        0.9937834739685059,
        0.30293095111846924
      ],
      "min": [
        -0.29693692922592163,
        -0.9554330110549927,
        -0.29583486914634705
      ],
      "type": "VEC3"
    },
    {
      "bufferView": 1,
      "byteOffset": 952,
      "componentType": 5126,
      "count": 56,
      "max": [
        0.0,
        0.0
      ],
      "min": [
        0.0,
        0.0
      ],
      "type": "VEC2"
    },
    {
      "bufferView": 0,
      "byteOffset": 1284,
      "componentType": 5125,
      "count": 168,
      "type": "SCALAR"
    },
    {
      "bufferView": 2,
      "byteOffset": 4200,
      "componentType": 5126,
      "count": 476,
      "max": [
        15.48586368560791,
        -0.43122398853302,
        21.679880142211914
      ],
      "min": [
        5.268860816955566,
        -8.565658569335938,
        11.576761245727539
      ],
      "type": "VEC3"
    },
    {
      "bufferView": 2,
      "byteOffset": 9912,
      "componentType": 5126,
      "count": 476,
      "max": [
        0.9639345407485962,
        1.0,
        1.0
      ],
      "min": [
        -0.9639350175857544,
        -1.0,
        -0.9998407363891602
      ],
      "type": "VEC3"
    },
    {
      "bufferView": 3,
      "byteOffset": 1904,
      "componentType": 5126,
      "count": 476,
      "max": [
        1.0,
        0.9998880624771118,
        1.0,
        1.0
      ],
      "min": [
        -1.0,
        -0.999888002872467,
        -1.0,
        1.0
      ],
      "type": "VEC4"
    },
    {
      "bufferView": 1,
      "byteOffset": 1400,
      "componentType": 5126,
      "count": 476,
      "max": [
        0.9906780123710632,
        0.9842100143432617
      ],
      "min": [
        0.009321999736130238,
        0.015496999956667423
      ],
      "type": "VEC2"
    },
    {
      "bufferView": 0,
      "byteOffset": 1956,
      "componentType": 5125,
      "count": 1674,
      "type": "SCALAR"
    },
    {
      "bufferView": 2,
      "byteOffset": 15624,
      "componentType": 5126,
      "count": 6711,
      "max": [
        22.45145034790039,
        4.273074150085449,
        21.893892288208008
      ],
      "min": [
        2.2018120288848877,
        -11.709075927734375,
        11.468544006347656
      ],
      "type": "VEC3"
    },
    {
      "bufferView": 2,
      "byteOffset": 96156,
      "componentType": 5126,
      "count": 6711,
      "max": [
        1.0,
        1.0,
        1.0
      ],
      "min": [
        -1.0,
        -1.0,
        -1.0
      ],
      "type": "VEC3"
    },
    {
      "bufferView": 3,
      "byteOffset": 9520,
      "componentType": 5126,
      "count": 6711,
      "max": [
        0.9999426007270813,
        1.0,
        1.0,
        1.0
      ],
      "min": [
        -0.9999039173126221,
        -1.0,
        -1.0,
        -1.0
      ],
      "type": "VEC4"
    },
    {
      "bufferView": 1,
      "byteOffset": 5208,
      "componentType": 5126,
      "count": 6711,
      "max": [
        0.9976969957351685,
        0.9958909749984741
      ],
      "min": [
        0.005915999878197908,
        0.012821000069379807
      ],
      "type": "VEC2"
    },
    {
      "bufferView": 0,
      "byteOffset": 8652,
      "componentType": 5125,
      "count": 30471,
      "type": "SCALAR"
    },
    {
      "bufferView": 2,
      "byteOffset": 176688,
      "componentType": 5126,
      "count": 7189,
      "max": [
        15.832242012023926,
        1.1010949611663818,
        18.7081298828125
      ],
      "min": [
        2.1652469635009766,
        -7.812355995178223,
        11.463440895080566
      ],
      "type": "VEC3"
    },
    {
      "bufferView": 2,
      "byteOffset": 262956,
      "componentType": 5126,
      "count": 7189,
      "max": [
        1.0,
        0.9999923706054688,
        0.9999412298202515
      ],
      "min": [
        -1.0,
        -0.9999923706054688,
        -0.9999859929084778
      ],
      "type": "VEC3"
    },
    {
      "bufferView": 3,
      "byteOffset": 116896,
      "componentType": 5126,
      "count": 7189,
      "max": [
        1.0,
        0.999999463558197,
        0.9998412132263184,
        1.0
      ],
      "min": [
        -1.0,
        -0.9999991059303284,
        -0.9998422861099243,
        -1.0
      ],
      "type": "VEC4"
    },
    {
      "bufferView": 1,
      "byteOffset": 58896,
      "componentType": 5126,
      "count": 7189,
      "max": [
        0.9912279844284058,
        0.9922500252723694
      ],
      "min": [
        0.009633000008761883,
        0.006132999900728464
      ],
      "type": "VEC2"
    },
    {
      "bufferView": 0,
      "byteOffset": 130536,
      "componentType": 5125,
      "count": 19260,
      "type": "SCALAR"
    },
    {
      "bufferView": 2,
      "byteOffset": 349224,
      "componentType": 5126,
      "count": 10317,
      "max": [
        15.078149795532227,
        0.6042230129241943,
        22.350229263305664
      ],
      "min": [
        8.164203643798828,
        -9.051041603088379,
        11.49152946472168
      ],
      "type": "VEC3"
    },
    {
      "bufferView": 2,
      "byteOffset": 473028,
      "componentType": 5126,
      "count": 10317,
      "max": [
        1.0,
        1.0,
        1.0
      ],
      "min": [
        -1.0,
        -1.0,
        -1.0
      ],
      "type": "VEC3"
    },
    {
      "bufferView": 3,
      "byteOffset": 231920,
      "componentType": 5126,
      "count": 10317,
      "max": [
        1.0,
        1.0,
        1.0,
        1.0
      ],
      "min": [
        -1.0,
        -1.0,
        -1.0,
        -1.0
      ],
      "type": "VEC4"
    },
    {
      "bufferView": 1,
      "byteOffset": 116408,
      "componentType": 5126,
      "count": 10317,
      "max": [
        0.9983440041542053,
        0.9981430172920227
      ],
      "min": [
        0.002885000081732869,
        0.00394000019878149
      ],
      "type": "VEC2"
    },
    {
      "bufferView": 0,
      "byteOffset": 207576,
      "componentType": 5125,
      "count": 29652,
      "type": "SCALAR"
    }
  ],
  "asset": {
    "extras": {
      "author": "Silvia_ (https://sketchfab.com/Silvia_)",
      "license": "CC-BY-4.0 (http://creativecommons.org/licenses/by/4.0/)",
      "source": "https://sketchfab.com/3d-models/sony-fx-300-jackal-136a4c67057b42eca51b03655a6505f6",
      "title": "Sony FX 300 - Jackal"
    },
    "generator": "Sketchfab-14.97.0",
    "version": "2.0"
  },
  "bufferViews": [
    {
      "buffer": 0,
      "byteLength": 326184,
      "name": "floatBufferViews",
      "target": 34963
    },
    {
      "buffer": 0,
      "byteLength": 198944,
      "byteOffset": 326184,
      "byteStride": 8,
      "name": "floatBufferViews",
      "target": 34962
    },
    {
      "buffer": 0,
      "byteLength": 596832,
      "byteOffset": 525128,
      "byteStride": 12,
      "name": "floatBufferViews",
      "target": 34962
    },
    {
      "buffer": 0,
      "byteLength": 396992,
      "byteOffset": 1121960,
      "byteStride": 16,
      "name": "floatBufferViews",
      "target": 34962
    }
  ],
  "buffers": [
    {
      "byteLength": 1518952,
      "uri": "scene.bin"
    }
  ],
  "images": [
    {
      "uri": "textures/initialShadingGroup_baseColor.png"
    },
    {
      "uri": "textures/initialShadingGroup_metallicRoughness.png"
    },
    {
      "uri": "textures/initialShadingGroup_normal.png"
    },
    {
      "uri": "textures/lambert2SG_baseColor.png"
    },
    {
      "uri": "textures/lambert2SG_metallicRoughness.png"
    },
    {
      "uri": "textures/lambert2SG_normal.png"
    },
    {
      "uri": "textures/lambert3SG_baseColor.png"
    },
    {
      "uri": "textures/lambert3SG_metallicRoughness.png"
    },
    {
      "uri": "textures/lambert3SG_normal.png"
    },
    {
      "uri": "textures/lambert4SG_baseColor.png"
    },
    {
      "uri": "textures/lambert4SG_metallicRoughness.png"
    },
    {
      "uri": "textures/lambert4SG_normal.png"
    },
    {
      "uri": "textures/lambert5SG_metallicRoughness.png"
    }
  ],
  "materials": [
    {
      "doubleSided": true,
      "name": "initialShadingGroup",
      "normalTexture": {
        "index": 2
      },
      "pbrMetallicRoughness": {
        "baseColorTexture": {
          "index": 0
        },
        "metallicRoughnessTexture": {
          "index": 1
        }
      }
    },
    {
      "alphaMode": "BLEND",
      "doubleSided": true,
      "name": "lambert2SG",
      "normalTexture": {
        "index": 5
      },
      "pbrMetallicRoughness": {
        "baseColorFactor": [
          1.0,
          1.0,
          1.0,
          0.7605503007954793
        ],
        "baseColorTexture": {
          "index": 3
        },
        "metallicRoughnessTexture": {
          "index": 4
        }
      }
    },
    {
      "doubleSided": true,
      "name": "lambert3SG",
      "normalTexture": {
        "index": 8
      },
      "occlusionTexture": {
        "index": 7
      },
      "pbrMetallicRoughness": {
        "baseColorTexture": {
          "index": 6
        },
        "metallicRoughnessTexture": {
          "index": 7
        }
      }
    },
    {
      "doubleSided": true,
      "name": "lambert4SG",
      "normalTexture": {
        "index": 11
      },
      "occlusionTexture": {
        "index": 10
      },
      "pbrMetallicRoughness": {
        "baseColorTexture": {
          "index": 9
        },
        "metallicRoughnessTexture": {
          "index": 10
        }
      }
    },
    {
      "doubleSided": true,
      "name": "lambert5SG",
      "normalTexture": {
        "index": 2
      },
      "occlusionTexture": {
        "index": 12
      },
      "pbrMetallicRoughness": {
        "baseColorTexture": {
          "index": 0
        },
        "metallicRoughnessTexture": {
          "index": 12
        }
      }
    }
  ],
  "meshes": [
    {
      "name": "Object_0",
      "primitives": [
        {
          "attributes": {
            "NORMAL": 1,
            "POSITION": 0,
            "TANGENT": 2,
            "TEXCOORD_0": 3
          },
          "indices": 4,
          "material": 0,
          "mode": 4
        }
      ]
    },
    {
      "name": "Object_1",
      "primitives": [
        {
          "attributes": {
            "NORMAL": 6,
            "POSITION": 5,
            "TEXCOORD_0": 7
          },
          "indices": 8,
          "material": 1,
          "mode": 4
        }
      ]
    },
    {
      "name": "Object_2",
      "primitives": [
        {
          "attributes": {
            "NORMAL": 10,
            "POSITION": 9,
            "TANGENT": 11,
            "TEXCOORD_0": 12
          },
          "indices": 13,
          "material": 1,
          "mode": 4
        }
      ]
    },
    {
      "name": "Object_3",
      "primitives": [
        {
          "attributes": {
            "NORMAL": 15,
            "POSITION": 14,
            "TANGENT": 16,
            "TEXCOORD_0": 17
          },
          "indices": 18,
          "material": 2,
          "mode": 4
        }
      ]
    },
    {
      "name": "Object_4",
      "primitives": [
        {
          "attributes": {
            "NORMAL": 20,
            "POSITION": 19,
            "TANGENT": 21,
            "TEXCOORD_0": 22
          },
          "indices": 23,
          "material": 3,
          "mode": 4
        }
      ]
    },
    {
      "name": "Object_5",
      "primitives": [
        {
          "attributes": {
            "NORMAL": 25,
            "POSITION": 24,
            "TANGENT": 26,
            "TEXCOORD_0": 27
          },
          "indices": 28,
          "material": 4,
          "mode": 4
        }
      ]
    }
  ],
  "nodes": [
    {
      "children": [
        1
      ],
      "matrix": [
        1.0,
        0.0,
        0.0,
        0.0,
        0.0,
        2.220446049250313e-16,
        -1.0,
        0.0,
        0.0,
        1.0,
        2.220446049250313e-16,
        0.0,
        0.0,
        0.0,
        0.0,
        1.0
      ],
      "name": "Sketchfab_model"
    },
    {
      "children": [
        2,
        3,
        4,
        5,
        6,
        7
      ],
      "name": "low_DEF.obj.cleaner.materialmerger.gles"
    },
    {
      "mesh": 0,
      "name": "Object_2"
    },
    {
      "mesh": 1,
      "name": "Object_3"
    },
    {
      "mesh": 2,
      "name": "Object_4"
    },
    {
      "mesh": 3,
      "name": "Object_5"
    },
    {
      "mesh": 4,
      "name": "Object_6"
    },
    {
      "mesh": 5,
      "name": "Object_7"
    }
  ],
  "samplers": [
    {
      "magFilter": 9729,
      "minFilter": 9987,
      "wrapS": 10497,
      "wrapT": 10497
    }
  ],
  "scene": 0,
  "scenes": [
    {
      "name": "Sketchfab_Scene",
      "nodes": [
        0
      ]
    }
  ],
  "textures": [
    {
      "sampler": 0,
      "source": 0
    },
    {
      "sampler": 0,
      "source": 1
    },
    {
      "sampler": 0,
      "source": 2
    },
    {
      "sampler": 0,
      "source": 3
    },
    {
      "sampler": 0,
      "source": 4
    },
    {
      "sampler": 0,
      "source": 5
    },
    {
      "sampler": 0,
      "source": 6
    },
    {
      "sampler": 0,
      "source": 7
    },
    {
      "sampler": 0,
      "source": 8
    },
    {
      "sampler": 0,
      "source": 9
    },
    {
      "sampler": 0,
      "source": 10
    },
    {
      "sampler": 0,
      "source": 11
    },
    {
      "sampler": 0,
      "source": 12
    }
  ]
}
